<svg xmlns="http://www.w3.org/2000/svg" height="512pt" viewBox="-32 0 512 512.001" width="512pt"><path fill="#fff" d="m168.824219 45.308594h19.027343c4.140626 0 7.5-3.359375 7.5-7.5s-3.359374-7.5-7.5-7.5h-19.027343c-4.140625 0-7.5 3.359375-7.5 7.5s3.359375 7.5 7.5 7.5zm0 0"></path><path fill="#fff" d="m81.191406 170.300781c1.464844 1.464844 3.382813 2.195313 5.300782 2.195313 1.921874 0 3.839843-.730469 5.304687-2.195313l20.582031-20.585937c2.929688-2.929688 2.929688-7.675782 0-10.605469-2.925781-2.929687-7.675781-2.929687-10.605468 0l-15.28125 15.28125-2.21875-2.222656c-2.929688-2.929688-7.679688-2.929688-10.605469 0-2.929688 2.929687-2.929688 7.679687 0 10.605469zm0 0"></path><path fill="#fff" d="m143.628906 162.203125h133.550782c4.144531 0 7.5-3.355469 7.5-7.5 0-4.140625-3.355469-7.5-7.5-7.5h-133.550782c-4.140625 0-7.5 3.359375-7.5 7.5 0 4.144531 3.359375 7.5 7.5 7.5zm0 0"></path><path fill="#fff" d="m81.191406 217.007812c1.464844 1.464844 3.382813 2.195313 5.300782 2.195313 1.921874 0 3.839843-.730469 5.304687-2.195313l20.582031-20.582031c2.929688-2.929687 2.929688-7.679687 0-10.609375-2.929687-2.925781-7.675781-2.925781-10.605468 0l-15.277344 15.28125-2.222656-2.21875c-2.929688-2.929687-7.675782-2.929687-10.605469 0-2.929688 2.929688-2.929688 7.675782 0 10.605469zm0 0"></path><path fill="#fff" d="m143.628906 208.914062h133.550782c4.144531 0 7.5-3.359374 7.5-7.5 0-4.144531-3.355469-7.5-7.5-7.5h-133.550782c-4.140625 0-7.5 3.355469-7.5 7.5 0 4.140626 3.359375 7.5 7.5 7.5zm0 0"></path><path fill="#fff" d="m81.191406 267.46875c1.464844 1.460938 3.382813 2.195312 5.300782 2.195312 1.921874 0 3.839843-.734374 5.304687-2.195312l20.582031-20.585938c2.929688-2.929687 2.929688-7.675781 0-10.605468-2.929687-2.929688-7.675781-2.929688-10.605468 0l-15.277344 15.28125-2.222656-2.21875c-2.929688-2.929688-7.675782-2.929688-10.605469 0-2.929688 2.925781-2.929688 7.675781 0 10.605468zm0 0"></path><path fill="#fff" d="m81.191406 317.925781c1.464844 1.464844 3.382813 2.195313 5.300782 2.195313 1.921874 0 3.839843-.730469 5.304687-2.195313l20.582031-20.582031c2.929688-2.929688 2.929688-7.679688 0-10.609375-2.929687-2.925781-7.675781-2.925781-10.605468 0l-15.277344 15.28125-2.222656-2.21875c-2.929688-2.929687-7.675782-2.929687-10.605469 0-2.929688 2.929687-2.929688 7.675781 0 10.605469zm0 0"></path><path fill="#fff" d="m356.675781 249.933594v-155.1875c0-19.554688-15.90625-35.460938-35.460937-35.460938h-55.804688v-8.574218c0-10.035157-8.164062-18.203126-18.199218-18.203126h-18.460938c-2.792969 0-5.066406-2.269531-5.066406-5.0625 0-15.132812-12.3125-27.445312-27.441406-27.445312h-35.808594c-15.128906 0-27.441406 12.3125-27.441406 27.445312 0 2.789063-2.269532 5.0625-5.0625 5.0625h-18.464844c-10.035156 0-18.199219 8.164063-18.199219 18.203126v8.570312h-55.8125c-19.550781 0-35.453125 15.910156-35.453125 35.464844v308.359375c0 4.140625 3.359375 7.5 7.5 7.5 4.144531 0 7.5-3.359375 7.5-7.5v-308.359375c0-11.28125 9.175781-20.460938 20.453125-20.460938h55.8125v14.070313h-45.847656c-8.320313 0-15.085938 6.773437-15.085938 15.097656v360.855469c0 8.320312 6.765625 15.089844 15.085938 15.089844h179.980469c6.992187 6.023437 14.617187 11.339843 22.75 15.839843h-212.695313c-11.277344 0-20.453125-9.179687-20.453125-20.460937v-39.410156c0-4.144532-3.355469-7.5-7.5-7.5-4.140625 0-7.5 3.355468-7.5 7.5v39.410156c0 19.554687 15.902344 35.460937 35.453125 35.460937h255.96875c7.074219 1.152344 14.328125 1.761719 21.71875 1.761719 74.246094 0 134.648437-60.398438 134.648437-134.644531 0-59.015625-38.167968-109.28125-91.113281-127.421875zm-311.34375 214.375v-360.855469c0-.066406.050781-.097656.089844-.097656h49.535156c3.324219 4.398437 8.582031 7.257812 14.507813 7.257812h11.105468c4.144532 0 7.5-3.359375 7.5-7.5s-3.355468-7.5-7.5-7.5h-11.105468c-1.765625 0-3.199219-1.4375-3.199219-3.203125v-25.605468c0-.007813 0-.015626 0-.019532 0-.007812 0-.015625 0-.019531v-16.054687c0-1.765626 1.433594-3.203126 3.199219-3.203126h18.464844c11.0625 0 20.0625-9 20.0625-20.0625 0-6.863281 5.582031-12.445312 12.441406-12.445312h35.808594c6.859374 0 12.441406 5.585938 12.441406 12.445312 0 11.0625 9 20.0625 20.066406 20.0625h18.460938c1.765624 0 3.199218 1.4375 3.199218 3.203126v41.699218c0 1.765625-1.433594 3.203125-3.199218 3.203125h-94.824219c-4.144531 0-7.5 3.359375-7.5 7.5s3.355469 7.5 7.5 7.5h94.824219c5.925781 0 11.183593-2.859375 14.507812-7.257812h49.539062c.035157 0 .085938.03125.085938.097656v114.042969c0 4.144531 3.359375 7.5 7.5 7.5 4.144531 0 7.5-3.355469 7.5-7.5v-114.042969c0-8.324219-6.765625-15.097656-15.085938-15.097656h-45.847656v-14.070313h55.804688c11.28125 0 20.460937 9.179688 20.460937 20.460938v151.015625c-9.199219-1.992188-18.746093-3.050781-28.535156-3.050781-10.644531 0-21.007813 1.246093-30.945313 3.59375-1.332031-1.199219-3.082031-1.933594-5.015624-1.933594h-133.550782c-4.140625 0-7.5 3.359375-7.5 7.5 0 4.144531 3.359375 7.5 7.5 7.5h104.695313c-16.132813 8.898437-30.253907 21.007812-41.5 35.460937h-62.53125c-4.144531 0-7.5 3.359375-7.5 7.5 0 4.144531 3.355469 7.5 7.5 7.5h52.398437c-11.5625 19.863281-18.195312 42.933594-18.195312 67.523438 0 33.160156 12.058594 63.554687 32.007812 87.042969h-165.085937c-.046875 0-.085938-.042969-.085938-.089844zm267.808594 32.691406c-65.972656 0-119.644531-53.671875-119.644531-119.644531 0-65.976563 53.671875-119.648438 119.644531-119.648438 65.976563 0 119.648437 53.675781 119.648437 119.648438 0 65.972656-53.671874 119.644531-119.648437 119.644531zm0 0"></path><path fill="#fff" d="m344.089844 325.839844c-10.191406 0-19.773438 3.96875-26.980469 11.175781l-3.96875 3.964844-3.964844-3.960938c-7.207031-7.210937-16.789062-11.179687-26.980469-11.179687-10.195312 0-19.777343 3.96875-26.988281 11.175781-14.875 14.878906-14.875 39.089844 0 53.972656l47.597657 47.597657c2.851562 2.847656 6.59375 4.273437 10.335937 4.273437 3.746094 0 7.488281-1.425781 10.339844-4.273437l47.597656-47.601563c14.878906-14.878906 14.878906-39.089844 0-53.96875-7.207031-7.207031-16.792969-11.175781-26.988281-11.175781zm16.378906 54.539062-47.328125 47.328125-47.324219-47.328125c-9.03125-9.03125-9.03125-23.726562 0-32.753906 4.375-4.375 10.191406-6.785156 16.378906-6.785156 6.183594 0 12 2.410156 16.375 6.785156l7.351563 7.347656c1.929687 1.929688 4.492187 2.992188 7.222656 2.992188 2.726563 0 5.289063-1.0625 7.21875-2.988282l7.351563-7.351562s0 0 0-.003906c4.375-4.371094 10.191406-6.78125 16.378906-6.78125s12.003906 2.410156 16.378906 6.785156c9.027344 9.027344 9.027344 23.722656-.003906 32.753906zm0 0"></path><path fill="#fff" d="m136.171875 385.839844c-3.304687-2.492188-8.007813-1.835938-10.503906 1.46875-2.339844 3.097656-6.199219 5.089844-10.117188 5.199218-1.460937.039063-5.347656.148438-8.105469 3.417969-1.433593 1.695313-1.875 3.457031-2.089843 4.300781l-1.601563 6.351563c-.140625.550781-.464844 1.832031-.765625 2.554687-.050781-.011718-.105469-.023437-.15625-.039062-.824219-.253906-1.863281-1-3.097656-2.210938-3.183594-3.128906-5.484375-7.203124-6.667969-11.5625-.03125-3.597656-.316406-7.1875-.855468-10.722656-.574219-3.742187-3.800782-6.460937-7.636719-6.359375-3.785157.113281-6.894531 3.027344-7.246094 6.800781-.378906 4.066407-.117187 8.160157.734375 12.121094-.144531 8.074219-1.863281 16.164063-5.058594 23.511719-1.648437 3.800781.09375 8.21875 3.894532 9.867187.972656.425782 1.984374.625 2.980468.625 2.898438 0 5.65625-1.6875 6.882813-4.515624 1.195312-2.75 2.222656-5.578126 3.082031-8.46875 2.792969 2.609374 5.601562 4.328124 8.5625 5.242187 5 1.546875 10.230469.648437 13.980469-2.394531 4.015625-3.261719 5.199219-7.96875 5.910156-10.777344l.757813-3.007812c7.316406-1.023438 14.105468-4.964844 18.582031-10.894532 2.496093-3.308594 1.839843-8.011718-1.464844-10.507812zm0 0"></path></svg>
