<svg xmlns="http://www.w3.org/2000/svg" id="Capa_1" height="512" viewBox="0 0 512 512" width="512"><g><path fill="#fff" d="m290.639 441.233c0-4.142-3.358-7.5-7.5-7.5s-7.5 3.358-7.5 7.5c0 4.142 3.358 7.5 7.5 7.5 4.143.001 7.5-3.357 7.5-7.5z"></path><path fill="#fff" d="m283.139 463.833c-4.142 0-7.5 3.358-7.5 7.5 0 4.142 3.358 7.5 7.5 7.5s7.5-3.358 7.5-7.5c0-4.142-3.357-7.5-7.5-7.5z"></path><path fill="#fff" d="m156.403 330.92c-30.054 0-54.504 24.45-54.504 54.504v26.69c0 4.142 3.358 7.5 7.5 7.5s7.5-3.358 7.5-7.5v-26.69c0-21.783 17.721-39.504 39.504-39.504h42.486l.008 16.918c.002 3.342.309 6.613.864 9.799.013.07.023.141.038.211 4.329 24.29 24.061 43.306 48.7 46.556v77.596h-82.757v-52.836c0-4.142-3.358-7.5-7.5-7.5s-7.5 3.358-7.5 7.5v52.836h-31.942c-1.048 0-1.901-.853-1.901-1.901v-50.3c0-4.142-3.358-7.5-7.5-7.5s-7.5 3.358-7.5 7.5v50.3c0 9.319 7.582 16.901 16.901 16.901h274.4c9.319 0 16.901-7.582 16.901-16.901v-109.675c0-30.054-24.45-54.504-54.504-54.504-4.142 0-7.5 3.358-7.5 7.5s3.358 7.5 7.5 7.5c21.783 0 39.504 17.721 39.504 39.504v109.675c0 1.048-.853 1.901-1.901 1.901h-31.943v-52.836c0-4.142-3.358-7.5-7.5-7.5s-7.5 3.358-7.5 7.5v52.836h-82.757v-77.596c24.64-3.25 44.372-22.267 48.7-46.557.014-.069.025-.138.037-.208.556-3.187.863-6.458.864-9.801l.008-16.919h9.905c4.142 0 7.5-3.358 7.5-7.5s-3.358-7.5-7.5-7.5h-21.449l.008-16.688c45.166-18.418 75.155-62.689 75.155-111.82v-17.443c0-4.142-3.358-7.5-7.5-7.5s-7.5 3.358-7.5 7.5v17.443c0 23.913-8.118 46.507-22.112 64.637 4.659-11.061 7.241-23.226 7.241-35.989v-58.557c0-19.715-6.07-38.518-17.553-54.376-2.487-3.438-7.539-4.09-10.821-1.406-16.171 13.224-62.715 43.57-145.365 39.803-3.926-.188-7.422 2.851-7.806 6.758-.299 3.044-.451 6.147-.451 9.221v58.557c0 12.468 2.466 24.362 6.923 35.216-13.63-17.997-21.516-40.291-21.516-63.864v-49.091c0-28.311 11.044-54.908 31.098-74.893 19.83-19.761 47.008-30.946 75.006-30.836 27.805.096 54.036 11.068 73.861 30.895 4.555 4.556 8.307 9.517 12.227 14.592 12.096 17.322 18.829 37.839 19.247 59.348.081 4.141 3.5 7.433 7.644 7.353 4.142-.081 7.434-3.503 7.353-7.644-.44-22.678-7.04-44.389-18.941-63.142 7.24-9.596 11.181-21.252 11.181-33.419.002-30.643-24.929-55.574-55.573-55.574-22.13 0-41.81 12.953-50.693 32.777-2.075-.114-4.159-.179-6.251-.186-32.295-.123-62.749 12.393-85.646 35.211-22.899 22.82-35.51 53.19-35.51 85.518v49.091c0 49.131 29.99 93.402 75.155 111.82l.008 16.689zm156.968-315.92c22.373 0 40.575 18.202 40.575 40.575 0 7.31-1.951 14.366-5.584 20.541-2.371-2.841-4.875-5.591-7.52-8.236-17.303-17.305-38.891-28.696-62.296-33.16 7.204-12.068 20.29-19.72 34.825-19.72zm-15.294 348.782h-84.154l-.033-17.862h4.047c1.99 0 3.898-.79 5.305-2.198s2.196-3.316 2.195-5.306l-.01-20.577c9.521 3.429 19.764 5.303 30.434 5.303 10.773 0 21.113-1.909 30.713-5.403l-.01 20.678c-.001 1.99.789 3.898 2.195 5.306 1.407 1.407 3.315 2.198 5.305 2.198h4.047zm23.28-230.382c6.883 11.809 10.502 25.178 10.502 39.103v58.557c0 42.503-34.093 77.082-75.998 77.082s-75.998-34.579-75.998-77.082v-58.557c0-.246.016-.494.018-.741 2.411.055 4.794.082 7.146.082 70.059 0 113.854-23.691 134.33-38.444zm-104.302 245.382h77.891c-6.306 15.316-21.385 26.13-38.945 26.13-17.561 0-32.641-10.815-38.946-26.13z"></path></g></svg>
