<svg xmlns="http://www.w3.org/2000/svg" id="Capa_1" height="512" viewBox="0 0 512.006 512.006" width="512"><g><g id="Layer_2"><g id="Layer_1-2"><g id="checked_lungs"><path fill="#fff" d="m512.005 238.941c.103-70.592-57.04-127.902-127.632-128.005-36.699-.054-71.65 15.67-95.955 43.166l-6.815-6.778v-87.59c0-4.712-3.819-8.531-8.531-8.531h-34.133c-4.712 0-8.533 3.819-8.536 8.531v87.619l-25.598 25.546v-6.297c.362-9.549-4.322-18.585-12.335-23.792-13.763-9.073-35.957-7.386-50.762-1.037-125.721 53.868-141.769 167.16-141.703 259.841-.237 18.767 8.334 36.562 23.156 48.075 9.238 7.156 20.582 11.056 32.267 11.095 4.617 0 9.213-.612 13.668-1.819l105.714-28.515c18.1-5.345 30.389-22.136 30.009-41.005v-144.164l51.172-51.266 6.071 6.127c-16.567 51.81 1.563 108.424 45.143 140.973v48.358c-.37 18.873 11.927 35.664 30.033 41.005l105.718 28.496c4.455 1.211 9.051 1.826 13.668 1.829 11.662-.039 22.985-3.931 32.206-11.071 14.755-11.601 23.311-29.377 23.175-48.146 0-32.583-1.471-70.944-11.698-109.508 7.691-16.659 11.682-34.787 11.698-53.137zm-324.272 150.527c.375 11.15-6.739 21.179-17.387 24.509l-105.718 28.52c-10.789 2.954-22.339.597-31.107-6.349-10.598-8.3-16.693-21.088-16.463-34.548-.067-92.851 15.492-194.501 131.362-244.146 6.29-2.542 13.011-3.848 19.796-3.846 5.18-.257 10.329.937 14.866 3.45 3.203 2.071 4.997 5.745 4.661 9.544zm74.328-213.552c-1.599-1.607-3.771-2.512-6.038-2.517-2.266-.002-4.439.901-6.038 2.507l-45.162 45.224v-24.132l40.162-40.063c1.602-1.603 2.503-3.776 2.503-6.042v-82.623h17.067v82.604c0 2.272.906 4.45 2.517 6.052l10.713 10.694c-3.254 4.92-6.167 10.057-8.72 15.375zm216.409 260.265c-8.756 6.929-20.288 9.276-31.056 6.32l-105.732-28.501c-10.653-3.327-17.776-13.354-17.411-24.509v-37.428c56.434 29.944 126.316 13.506 163.484-38.455 5.267 29.02 7.673 58.487 7.183 87.977.149 13.459-5.934 26.23-16.478 34.595h.01zm-94.468-86.309c-61.268 0-110.936-49.668-110.936-110.936s49.668-110.936 110.936-110.936 110.936 49.668 110.936 110.936v.005c-.067 61.24-49.696 110.866-110.936 110.931z"></path><path fill="#fff" d="m428.594 173.795c-2.987-3.644-8.362-4.176-12.006-1.189-.207.17-.407.35-.597.539l-54.57 54.089-8.484-8.955c-1.663-1.727-3.966-2.689-6.363-2.658-2.402.053-4.671 1.116-6.25 2.927l-22.459 25.748c-2.898 3.315-2.794 8.291.24 11.481l25.4 26.748c8.89 9.617 23.892 10.206 33.508 1.316.268-.247.529-.501.785-.76l71.943-71.326c3.128-3.101 3.383-8.072.589-11.477zm-62.841 97.163c-2.607 2.686-6.898 2.749-9.584.142-.108-.105-.213-.214-.314-.326l-20.05-21.12 11.185-12.825 8.055 8.484c1.579 1.665 3.762 2.624 6.057 2.658 2.29.024 4.494-.865 6.127-2.47l54.141-53.637 10.84 13.235z"></path></g></g></g></g></svg>
