<svg xmlns="http://www.w3.org/2000/svg" viewBox="0 0 64 64" width="512" height="512"><g id="_15-Pregnant" data-name="15-Pregnant"><path fill="#fff" d="M19,63H17V60.715C14.034,59.619,3,54.689,3,42c0-13.544,9.035-22.068,13.312-25.343C13.479,15.84,12,13.58,12,10c0-4.364,4.118-8.532,4.293-8.707l1.415,1.414C17.671,2.744,14,6.469,14,10c0,3.458,1.542,5,5,5a1,1,0,0,1,.515,1.857C19.37,16.944,5,25.787,5,42,5,55.06,17.734,58.883,18.276,59.039A1,1,0,0,1,19,60Z"></path><path fill="#fff" d="M61,63H59c0-9.6-3.624-16.109-6.82-21.852-2.02-3.628-3.764-6.761-4.172-10.024-.748-5.983,3.226-19.134,5.662-26.44l1.9.632c-1.918,5.753-6.3,19.76-5.576,25.56.36,2.877,2.017,5.853,3.935,9.3C57.078,45.836,61,52.88,61,63Z"></path><path fill="#fff" d="M56.242,3.326l-1.89-.652c.437-1.269.708-2.016.708-2.016l1.88.684S56.671,2.081,56.242,3.326Z"></path><path fill="#fff" d="M25,58A18,18,0,1,1,43,40,18.021,18.021,0,0,1,25,58Zm0-34A16,16,0,1,0,41,40,16.019,16.019,0,0,0,25,24Z"></path><path fill="#fff" d="M30,40c-2.386,0-8-2.956-8-7a7,7,0,0,1,14,0C36,36.77,32.7,40,30,40ZM29,28a5.006,5.006,0,0,0-5,5c0,2.568,4.366,5,6,5,1.334,0,4-2.161,4-5A5.006,5.006,0,0,0,29,28Z"></path><path fill="#fff" d="M29,54c-2.621,0-5.038-2.344-6.165-3.626l-2.1,1.577a3,3,0,0,1-3.464.1l-1.823-1.215a1,1,0,0,1,.108-1.727l1.789-.894,2.129-2.838a2.979,2.979,0,0,1,2.893-1.159l2.958.407L21.593,42.49a2.53,2.53,0,0,1,2.506-4.4l3.884,1.8L29,39.382V39h2v1a1,1,0,0,1-.553.9l-2,1a1,1,0,0,1-.867.012l-4.364-2.018c-.032-.015-.064-.032-.1-.05a.531.531,0,0,0-.456-.043.524.524,0,0,0-.32.33.532.532,0,0,0,.24.628L28.5,44.132A1,1,0,0,1,29,45v1a1,1,0,0,1-.343.754.989.989,0,0,1-.794.236l-5.8-.8a1.022,1.022,0,0,0-.992.382L18.8,49.6a1,1,0,0,1-.353.3l-.458.229.388.259a1,1,0,0,0,1.155-.031L22.4,48.2a1,1,0,0,1,1.4.2c.755,1,3.159,3.6,5.2,3.6,6.982,0,7.994-10.973,8-11.084l0-.032a4.978,4.978,0,0,0-1.876-3.905l-1.5-1.2,1.249-1.562,1.5,1.2A6.968,6.968,0,0,1,39,40.884V41C38.953,41.61,37.819,54,29,54Z"></path></g></svg>
